<svg xmlns="http://www.w3.org/2000/svg" viewBox="0 0 128 128">
  <defs>
    <radialGradient id="bg" cx="50%" cy="50%" r="55%">
      <stop offset="0%" stop-color="#b4f589" />
      <stop offset="100%" stop-color="#8ddc3a" />
    </radialGradient>
  </defs>
  <circle cx="64" cy="64" r="60" fill="url(#bg)" stroke="#e5f7c9" stroke-width="8" />
  <g fill="#3aab4f">
    <ellipse cx="64" cy="74" rx="30" ry="34" />
    <ellipse cx="44" cy="76" rx="10" ry="18" />
    <ellipse cx="84" cy="76" rx="10" ry="18" />
  </g>
  <ellipse cx="64" cy="76" rx="22" ry="26" fill="#d6ffd1" />
  <ellipse cx="64" cy="42" rx="18" ry="20" fill="#3aab4f" />
  <circle cx="52" cy="40" r="6" fill="#0f172a" />
  <circle cx="76" cy="40" r="6" fill="#0f172a" />
  <circle cx="52" cy="39" r="2" fill="#fff" />
  <circle cx="76" cy="39" r="2" fill="#fff" />
  <path d="M64 44c-4 0-8 2-8 6 0 2 2 4 4 4h8c2 0 4-2 4-4 0-4-4-6-8-6z" fill="#ffa94d" />
  <path d="M54 90c4 4 16 4 20 0" stroke="#3aab4f" stroke-width="6" stroke-linecap="round" fill="none" />
  <g fill="#ffb14d">
    <path d="M52 108c-4 0-10 8-6 10 4 2 12-4 12-8 0-2-2-2-6-2z" />
    <path d="M76 108c4 0 10 8 6 10-4 2-12-4-12-8 0-2 2-2 6-2z" />
  </g>
</svg>
